<svg width="60" height="60" viewBox="0 0 60 60" fill="none" xmlns="http://www.w3.org/2000/svg">
<g clip-path="url(#clip0_2202_52934)">
<rect width="60" height="60" rx="30" fill="#FEF3D6"/>
<path d="M16.4455 10.696C16.4534 9.93319 17.0633 9.27289 17.8271 9.28669C18.1231 9.2926 18.3856 9.39116 18.5968 9.55475L18.6087 9.54884L18.9975 4.94058C18.9975 4.94058 18.9994 4.93466 19.0034 4.93466L28.5084 4.76318C28.5084 4.76318 28.5144 4.76713 28.5144 4.7691L27.9519 14.4409C27.8887 15.527 27.2927 16.2109 26.4282 16.7391C26.4282 16.7391 25.767 17.0801 26.0414 17.0604C26.0414 17.0604 26.1993 21.8618 26.1993 21.8638C26.1282 24.1995 24.4151 27.3551 21.9579 27.2132C19.4869 27.0693 17.7304 22.7488 17.9751 20.289L18.3501 12.9528L18.3442 12.9469C17.6791 12.8602 16.4238 12.2373 16.4416 10.6979L16.4455 10.696Z" fill="#E79C91"/>
<path d="M26.1773 9.75783C26.1773 9.75783 26.1674 9.75783 26.1635 9.75783L24.7306 9.62577C24.6458 9.61789 24.5846 9.54299 24.5925 9.45824C24.6004 9.37348 24.6773 9.31238 24.7602 9.32026L26.1931 9.45232C26.278 9.46021 26.3392 9.53511 26.3313 9.61986C26.3234 9.6987 26.2563 9.7598 26.1793 9.7598L26.1773 9.75783Z" fill="#1C3FCA"/>
<path d="M21.5181 6.25103L21.374 7.17544C21.2536 7.9402 20.7661 8.59655 20.0694 8.9336C19.8326 9.04792 19.6846 9.29035 19.6924 9.5525L19.728 10.8672L18.7569 10.7667L18.0602 5.45079C17.9122 4.32336 18.8576 3.35165 19.9905 3.46794L20.9299 3.56452C24.6956 -0.107504 29.4857 1.75709 28.2265 4.23664C29.2113 4.26423 30.4271 5.50204 29.9199 7.06112C29.4225 8.59261 27.6699 8.5453 26.2923 7.65637C24.5812 6.55062 22.9884 5.54146 21.52 6.25103H21.5181Z" fill="white"/>
<path d="M27.6591 12.8032C27.1854 12.8032 26.7295 12.6376 26.3644 12.3301C25.9519 11.9832 25.6992 11.4984 25.6538 10.9622C25.6084 10.4261 25.7742 9.90379 26.1196 9.49185C26.467 9.0799 26.9525 8.82761 27.4893 8.78228C28.0262 8.73497 28.5492 8.90251 28.9617 9.24744C29.3742 9.59434 29.6268 10.0792 29.6722 10.6153C29.7669 11.723 28.9439 12.7007 27.8347 12.7953C27.7755 12.8012 27.7163 12.8032 27.6591 12.8032ZM27.665 9.0799C27.6156 9.0799 27.5663 9.08187 27.515 9.08581C27.0591 9.12524 26.6466 9.33811 26.3525 9.68698C26.0584 10.0358 25.9183 10.4793 25.9578 10.9327C25.9973 11.388 26.2104 11.7999 26.5597 12.0936C26.9091 12.3873 27.3531 12.5272 27.8071 12.4878C28.7465 12.407 29.4452 11.5792 29.3643 10.641C29.3248 10.1856 29.1117 9.7737 28.7623 9.48002C28.4505 9.21787 28.0656 9.07793 27.665 9.07793V9.0799Z" fill="#1C3FCA"/>
<path d="M19.6601 10.3311C19.6601 10.3311 19.9128 13.9341 21.1305 14.2337C21.6831 14.3697 22.2594 14.1667 22.5416 13.672L22.6893 13.3622C23.0249 12.7728 23.6643 12.42 24.3432 12.4516L25.2598 12.4937C26.1558 12.5351 26.8462 13.1359 26.935 14.0268L26.9587 14.2751C26.9922 14.6043 27.3672 14.7758 27.6376 14.5846L27.9534 14.3618L27.8922 15.3119C27.7955 16.7882 26.5245 17.9117 25.0462 17.8249L21.8292 17.6377C20.0805 17.5372 18.7187 16.0865 18.7286 14.3362L18.7542 9.96645L19.2654 9.14453L19.6582 10.3291L19.6601 10.3311Z" fill="white"/>
<path d="M23.1864 12.5129C22.7127 12.5129 22.2568 12.3474 21.8917 12.0399C21.4792 11.693 21.2266 11.2081 21.1812 10.672C21.1358 10.1359 21.3016 9.61355 21.647 9.2016C21.9943 8.78966 22.4798 8.53737 23.0167 8.49203C24.1259 8.39742 25.1028 9.21934 25.1995 10.3271C25.2449 10.8632 25.0791 11.3855 24.7337 11.7974C24.3864 12.2094 23.9009 12.4617 23.3621 12.507C23.3029 12.5129 23.2436 12.5149 23.1864 12.5149V12.5129ZM23.1904 8.78966C23.141 8.78966 23.0917 8.79163 23.0423 8.79557C22.5864 8.83499 22.1739 9.04786 21.8799 9.39673C21.5858 9.74561 21.4457 10.1891 21.4851 10.6424C21.566 11.5806 22.395 12.2764 23.3344 12.1976C23.7903 12.1581 24.2028 11.9453 24.4969 11.5964C24.791 11.2475 24.9311 10.804 24.8916 10.3507C24.8147 9.46178 24.0666 8.78966 23.1884 8.78966H23.1904Z" fill="#1C3FCA"/>
<path d="M18.6364 9.57248C18.5535 9.57248 18.4844 9.50547 18.4825 9.42268C18.4805 9.33793 18.5476 9.26697 18.6325 9.265L21.7232 9.1901C21.808 9.18616 21.8791 9.25515 21.8811 9.3399C21.883 9.42466 21.8159 9.49561 21.7311 9.49758L18.6404 9.57248H18.6364Z" fill="#1C3FCA"/>
<path d="M41.25 58.0424H2.89229L2.91795 53.239C-0.395793 52.8231 -2.71087 50.789 -2.17207 47.4974L0.875231 29.3699C1.50088 25.6486 4.33108 22.6842 8.02178 21.8819L17.9689 19.7197C18.3597 20.112 18.715 20.4687 19.0347 20.79C20.6847 22.4496 23.3609 22.487 25.0582 20.8747C25.451 20.5022 25.8378 20.1317 26.1951 19.7867L40.2316 24.9863L41.25 58.0385V58.0424Z" fill="white"/>
<path d="M2.89453 58.0412L2.92019 53.2378C4.41029 50.3818 3.50833 50.3818 3.50833 50.3818L9.35228 44.6717C9.35228 44.6717 9.96806 40.1699 10.4121 37.9564C12.6285 26.8773 7.56811 22.0956 7.48719 22.0148L17.3692 19.8506L22.5441 26.897L26.8683 19.9866L35.7793 22.5923L34.7294 29.5421L40.8891 58.0412H2.89453Z" fill="#1C3FCA"/>
<path d="M33.8086 28.7401L35.1487 22.4092L36.3191 22.7521L34.8823 29.4931L33.8086 28.7401Z" fill="#3395FF"/>
<path d="M-1.16861 41.6904L20.873 47.8479C21.546 48.0371 22.146 48.4274 22.5881 48.9694L22.8032 49.2336L24.7789 49.7322L23.267 56.5559L20.6105 56.2051L20.502 56.2366C19.6355 56.4948 18.7178 56.5342 17.8336 56.349L1.6991 53.016C-0.919926 52.4739 -2.63305 49.951 -2.16529 47.3217L-1.16663 41.6924L-1.16861 41.6904Z" fill="white"/>
<path d="M9.92113 44.929C9.90732 44.929 9.8935 44.929 9.87969 44.9231L5.75675 43.6892C5.67978 43.6656 5.63833 43.5867 5.66004 43.5099C5.68373 43.435 5.76267 43.3916 5.83964 43.4133L9.96258 44.6472C10.0396 44.6708 10.081 44.7497 10.0593 44.8265C10.0415 44.8896 9.98429 44.929 9.92113 44.929Z" fill="#BDDCFF"/>
<path d="M20.6075 56.3464C20.5937 56.3464 20.5779 56.3444 20.5641 56.3405C20.4891 56.3168 20.4457 56.236 20.4694 56.1591L22.4055 50.0095C22.4292 49.9346 22.5101 49.8932 22.5871 49.9149C22.6621 49.9386 22.7055 50.0194 22.6818 50.0963L20.7457 56.2459C20.7259 56.307 20.6687 56.3464 20.6075 56.3464Z" fill="#BDDCFF"/>
<path d="M26.8676 19.9866L28.182 20.3709L23.3585 28.3556C23.0012 28.9469 22.1545 28.9764 21.7578 28.4127L15.9316 20.164L17.3665 19.8506L22.5414 26.897L26.8656 19.9866H26.8676Z" fill="#3395FF"/>
<path d="M10.4113 37.9566C12.4007 34.4757 12.2092 29.5895 11.5737 26.8774C11.2382 25.4484 9.91193 22.3716 8.98037 21.6128L7.48633 22.0149C7.48633 22.0149 9.17971 23.6607 10.1211 27.3899C11.702 33.6558 10.4132 37.9566 10.4132 37.9566H10.4113Z" fill="#3395FF"/>
<path d="M33.2701 30.2532V45.8556H52.1166L51.197 43.4041L57.1597 30.2957L52.1166 19.3392L45.2594 17.7461H38.292L32.0427 19.3315C29.2704 20.0352 27.3228 22.5177 27.3015 25.3733L27.168 43.5027L30.6566 41.3412L33.2701 30.2551V30.2532Z" fill="#8062F6"/>
<path d="M51.9894 19.3084L48.5977 18.5195L49.3914 37.5325L56.6048 38.4586L57.7295 27.3261C58.1071 23.5908 55.6484 20.1571 51.9875 19.3064L51.9894 19.3084Z" fill="#8062F6"/>
<path d="M48.5075 16.5564C49.2265 14.4422 48.1351 12.1605 46.0699 11.46C44.0046 10.7594 41.7475 11.9054 41.0284 14.0195C40.3094 16.1336 41.4008 18.4153 43.4661 19.1159C45.5314 19.8164 47.7885 18.6705 48.5075 16.5564Z" fill="white"/>
<path d="M44.7005 10.2278C44.7005 10.2278 46.3364 15.0207 41.5042 16.1904C36.2791 17.3485 44.7005 10.2278 44.7005 10.2278Z" fill="#8062F6"/>
<path d="M45.1221 9.77145C45.269 5.93345 42.0319 2.69396 37.8918 2.53584C33.7517 2.37773 30.2763 5.36087 30.1294 9.19887C29.9824 13.0369 33.2195 16.2764 37.3596 16.4345C41.4997 16.5926 44.9751 13.6095 45.1221 9.77145Z" fill="white"/>
<path d="M32.7422 13.004L32.7189 9.58769C32.7112 8.57073 32.9512 7.5673 33.4139 6.66054L33.8108 5.88525C33.8108 5.88525 35.5048 9.44462 39.5277 9.7269L39.8645 9.7443L40.2537 9.53549C40.2537 9.53549 41.2274 8.98061 41.8431 9.9473C42.5516 11.0609 41.4114 12.7681 39.9613 12.3911L40.2169 16.2637C39.4212 16.3546 37.8763 16.4358 36.3275 16.4725C34.3684 16.517 32.7557 14.9606 32.7422 13.004Z" fill="#E99E93"/>
<path d="M37.5233 10.2241C37.5098 10.2241 37.4962 10.2241 37.4846 10.2183C33.9302 9.13172 33.7598 5.75022 33.7598 5.71542C33.7579 5.64002 33.816 5.57815 33.8895 5.57622C33.9708 5.57429 34.027 5.63229 34.0308 5.70576C34.0367 5.83723 34.1993 8.93065 37.564 9.95921C37.6356 9.98048 37.6762 10.0559 37.653 10.1274C37.6356 10.1854 37.5814 10.2241 37.5233 10.2241Z" fill="white"/>
<path d="M40.9557 12.0082L41.341 15.5483C41.4552 16.6 42.2606 17.4468 43.306 17.6151L47.7412 18.3304L43.9894 20.7993C40.9557 22.7946 37.0412 22.8642 33.936 20.9791L31.3418 19.4034L34.1799 18.7151C34.8362 18.5566 35.2892 17.9553 35.2602 17.2806L35.113 13.8488L37.231 12.0005L40.9538 12.0082H40.9557Z" fill="#E99E93"/>
<path d="M38.7868 26.3249C34.3283 26.3249 33.3545 19.1927 33.3468 19.1192C33.3371 19.0361 33.3952 18.9607 33.4765 18.951C33.5597 18.9413 33.6352 18.9993 33.6449 19.0805C33.6546 19.1501 34.5935 26.0233 38.7887 26.0233C38.8429 26.0233 38.8991 26.0233 38.9552 26.0195C44.1261 25.7991 45.0186 17.9785 45.0264 17.8992C45.036 17.8161 45.1115 17.7581 45.1928 17.7658C45.2761 17.7755 45.3361 17.849 45.3264 17.9321C45.3187 18.0133 44.3972 26.091 38.9688 26.3211C38.9087 26.323 38.8468 26.3249 38.7887 26.3249H38.7868Z" fill="#1C3FCA"/>
<path d="M39.0902 24.6647H39.0863C37.5762 24.6647 36.3024 23.6129 35.4041 21.6312C34.7362 20.158 34.5097 18.7098 34.5 18.6499C34.4865 18.5687 34.5445 18.4914 34.6259 18.4778C34.7072 18.4662 34.7846 18.5223 34.7982 18.6035C34.8078 18.6615 35.7177 24.3592 39.0863 24.3631H39.0902C42.5149 24.3631 43.7326 17.9539 43.7442 17.8901C43.7597 17.8089 43.839 17.7548 43.9204 17.7702C44.0017 17.7857 44.0559 17.863 44.0404 17.9462C44.0365 17.9636 43.7248 19.634 42.9737 21.2812C41.9631 23.495 40.6215 24.6666 39.0902 24.6666V24.6647Z" fill="#FFC94D"/>
<path d="M34.0218 9.82573C34.2453 9.82573 34.4264 9.64482 34.4264 9.42166C34.4264 9.19849 34.2453 9.01758 34.0218 9.01758C33.7983 9.01758 33.6172 9.19849 33.6172 9.42166C33.6172 9.64482 33.7983 9.82573 34.0218 9.82573Z" fill="#C94EBD"/>
<path d="M40.5615 12.6947C40.8694 12.6947 41.119 12.4454 41.119 12.1379C41.119 11.8304 40.8694 11.5811 40.5615 11.5811C40.2535 11.5811 40.0039 11.8304 40.0039 12.1379C40.0039 12.4454 40.2535 12.6947 40.5615 12.6947Z" fill="#FFC94D"/>
<path d="M40.5623 12.3827C40.6981 12.3827 40.8081 12.2728 40.8081 12.1371C40.8081 12.0015 40.6981 11.8916 40.5623 11.8916C40.4265 11.8916 40.3164 12.0015 40.3164 12.1371C40.3164 12.2728 40.4265 12.3827 40.5623 12.3827Z" fill="#C94EBD"/>
<path d="M35.2653 17.3863L35.2285 16.35C35.2285 16.35 36.8721 16.64 37.6736 16.1025L35.2634 17.3863H35.2653Z" fill="#D67570"/>
<path d="M36.1693 16.569C35.6466 16.569 35.2652 16.4917 35.2303 16.4859C35.1548 16.4704 35.1045 16.395 35.12 16.3196C35.1355 16.2442 35.211 16.1959 35.2865 16.2094C35.3039 16.2133 37.1431 16.5806 38.2833 15.6468C38.3434 15.5985 38.4324 15.6062 38.4827 15.6661C38.5311 15.7261 38.5234 15.815 38.4634 15.8653C37.7606 16.4395 36.8469 16.569 36.1693 16.569Z" fill="#D67570"/>
<path d="M45.9331 34.1515H42.7136C42.6362 34.1515 42.5723 34.0877 42.5723 34.0104C42.5723 33.933 42.6362 33.8692 42.7136 33.8692H45.9331C48.1885 33.8692 50.0954 32.2548 50.4671 30.0295C50.6181 29.1266 50.6297 28.9217 50.6316 28.8811C50.6316 28.8714 50.6297 28.8617 50.6297 28.8521C50.6297 28.7747 50.6936 28.7109 50.771 28.7109C50.8117 28.7109 50.8523 28.7303 50.8794 28.7612C50.9278 28.8192 50.953 28.8482 50.7478 30.0759C50.3529 32.4385 48.3298 34.1515 45.935 34.1515H45.9331Z" fill="#5D49D3"/>
<path d="M34.0763 18.791L53.9295 49.2129L52.3459 49.3598H21.0977L23.8661 26.3486C24.2533 23.1373 26.6132 20.5117 29.7688 19.7848L34.0763 18.791Z" fill="#1FC691"/>
<path d="M32.7598 19.0586L52.369 49.3587H54.0243L34.0917 18.6758L32.7598 19.0586Z" fill="#FFC94D"/>
<path d="M31.5657 19.4014L31.0488 19.5502L50.2961 49.3592H50.9814L31.5657 19.4014Z" fill="#FFC94D"/>
<path d="M29.7468 49.4998C29.6694 49.4998 29.6074 49.4379 29.6055 49.3606L29.3887 30.7769C29.3887 30.6995 29.4506 30.6357 29.5281 30.6338C29.6055 30.6338 29.6674 30.6957 29.6694 30.773L29.8862 49.3567C29.8862 49.4341 29.8243 49.4979 29.7468 49.4998Z" fill="#068E6D"/>
<path d="M28.9334 21.5974C29.067 21.5974 29.1754 21.4892 29.1754 21.3557C29.1754 21.2222 29.067 21.114 28.9334 21.114C28.7998 21.114 28.6914 21.2222 28.6914 21.3557C28.6914 21.4892 28.7998 21.5974 28.9334 21.5974Z" fill="#FFC94D"/>
<path d="M26.4178 29.6582C26.5514 29.6582 26.6598 29.55 26.6598 29.4165C26.6598 29.283 26.5514 29.1748 26.4178 29.1748C26.2841 29.1748 26.1758 29.283 26.1758 29.4165C26.1758 29.55 26.2841 29.6582 26.4178 29.6582Z" fill="#FFC94D"/>
<path d="M30.4275 31.4814C30.5612 31.4814 30.6695 31.3732 30.6695 31.2397C30.6695 31.1062 30.5612 30.998 30.4275 30.998C30.2939 30.998 30.1855 31.1062 30.1855 31.2397C30.1855 31.3732 30.2939 31.4814 30.4275 31.4814Z" fill="#FFC94D"/>
<path d="M26.658 34.789C26.7917 34.789 26.9 34.6808 26.9 34.5473C26.9 34.4139 26.7917 34.3057 26.658 34.3057C26.5244 34.3057 26.416 34.4139 26.416 34.5473C26.416 34.6808 26.5244 34.789 26.658 34.789Z" fill="#FFC94D"/>
<path d="M25.9314 44.5463C26.0651 44.5463 26.1734 44.4381 26.1734 44.3047C26.1734 44.1712 26.0651 44.063 25.9314 44.063C25.7978 44.063 25.6895 44.1712 25.6895 44.3047C25.6895 44.4381 25.7978 44.5463 25.9314 44.5463Z" fill="#FFC94D"/>
<path d="M25.0897 40.1083C25.2233 40.1083 25.3316 40.0001 25.3316 39.8667C25.3316 39.7332 25.2233 39.625 25.0897 39.625C24.956 39.625 24.8477 39.7332 24.8477 39.8667C24.8477 40.0001 24.956 40.1083 25.0897 40.1083Z" fill="#FFC94D"/>
<path d="M29.5252 39.6264C29.6588 39.6264 29.7672 39.5182 29.7672 39.3847C29.7672 39.2513 29.6588 39.1431 29.5252 39.1431C29.3915 39.1431 29.2832 39.2513 29.2832 39.3847C29.2832 39.5182 29.3915 39.6264 29.5252 39.6264Z" fill="#FFC94D"/>
<path d="M34.6209 28.0883C34.7545 28.0883 34.8629 27.9801 34.8629 27.8467C34.8629 27.7132 34.7545 27.605 34.6209 27.605C34.4873 27.605 34.3789 27.7132 34.3789 27.8467C34.3789 27.9801 34.4873 28.0883 34.6209 28.0883Z" fill="#FFC94D"/>
<path d="M33.4744 35.083C33.6081 35.083 33.7164 34.9748 33.7164 34.8413C33.7164 34.7078 33.6081 34.5996 33.4744 34.5996C33.3408 34.5996 33.2324 34.7078 33.2324 34.8413C33.2324 34.9748 33.3408 35.083 33.4744 35.083Z" fill="#FFC94D"/>
<path d="M37.7654 38.4316C37.8991 38.4316 38.0074 38.3234 38.0074 38.1899C38.0074 38.0564 37.8991 37.9482 37.7654 37.9482C37.6318 37.9482 37.5234 38.0564 37.5234 38.1899C37.5234 38.3234 37.6318 38.4316 37.7654 38.4316Z" fill="#FFC94D"/>
<path d="M45.6854 44.1538C45.819 44.1538 45.9273 44.0456 45.9273 43.9121C45.9273 43.7786 45.819 43.6704 45.6854 43.6704C45.5517 43.6704 45.4434 43.7786 45.4434 43.9121C45.4434 44.0456 45.5517 44.1538 45.6854 44.1538Z" fill="#FFC94D"/>
<path d="M34.3787 41.0239C34.5124 41.0239 34.6207 40.9157 34.6207 40.7822C34.6207 40.6487 34.5124 40.5405 34.3787 40.5405C34.2451 40.5405 34.1367 40.6487 34.1367 40.7822C34.1367 40.9157 34.2451 41.0239 34.3787 41.0239Z" fill="#FFC94D"/>
<path d="M39.2615 33.956C39.3952 33.956 39.5035 33.8478 39.5035 33.7143C39.5035 33.5809 39.3952 33.4727 39.2615 33.4727C39.1279 33.4727 39.0195 33.5809 39.0195 33.7143C39.0195 33.8478 39.1279 33.956 39.2615 33.956Z" fill="#FFC94D"/>
<path d="M42.4354 41.1318C42.569 41.1318 42.6773 41.0236 42.6773 40.8901C42.6773 40.7566 42.569 40.6484 42.4354 40.6484C42.3017 40.6484 42.1934 40.7566 42.1934 40.8901C42.1934 41.0236 42.3017 41.1318 42.4354 41.1318Z" fill="#FFC94D"/>
<path d="M37.9373 43.9125C38.071 43.9125 38.1793 43.8043 38.1793 43.6709C38.1793 43.5374 38.071 43.4292 37.9373 43.4292C37.8037 43.4292 37.6953 43.5374 37.6953 43.6709C37.6953 43.8043 37.8037 43.9125 37.9373 43.9125Z" fill="#FFC94D"/>
<path d="M30.1834 25.4353C30.317 25.4353 30.4254 25.3271 30.4254 25.1936C30.4254 25.0601 30.317 24.9519 30.1834 24.9519C30.0498 24.9519 29.9414 25.0601 29.9414 25.1936C29.9414 25.3271 30.0498 25.4353 30.1834 25.4353Z" fill="#FFC94D"/>
<path d="M49.3905 37.5322L48.8097 42.5609L35.3761 42.2941C34.9522 42.2361 34.5476 42.0757 34.1972 41.8301L31.6475 40.0437C30.4395 39.1969 28.7687 39.5101 27.9498 40.7378L26.8212 42.4295C26.6837 43.0965 26.9064 43.7887 27.4097 44.2488L29.6999 46.3465C29.9419 46.5669 30.3214 46.5341 30.5188 46.2711C30.6757 46.0642 30.6698 45.78 30.5072 45.5809C29.8858 44.8269 28.3312 42.6963 28.3312 42.6963L32.1702 45.1498C32.9001 45.6157 33.6803 46.0005 34.4953 46.2943L50.6179 48.9701C53.2082 49.3993 55.6262 47.5646 55.9069 44.9564L56.6039 38.4564L49.3905 37.5303V37.5322Z" fill="#E69B90"/>
<path d="M30.5232 46.2709C30.68 46.064 30.6742 45.7798 30.5116 45.5807C29.8901 44.8266 28.3356 42.696 28.3356 42.696L27.4121 44.2466L29.7023 46.3443C29.9443 46.5648 30.3238 46.5319 30.5212 46.2689" fill="#995956"/>
<path d="M27.8813 40.8096C27.8948 41.3548 27.7632 41.8459 28.948 42.4413L30.4793 43.3848C30.4793 43.3848 27.314 43.7986 27.1688 43.8199C27.0236 43.8411 25.0645 42.9015 25.0645 42.9015L27.8813 40.8115V40.8096Z" fill="#D67570"/>
<path d="M19.3699 40.7311L22.9553 41.2628C23.4586 41.3382 23.9697 41.2086 24.3762 40.9032C25.1526 40.3212 26.5271 39.339 27.7487 38.701C28.6586 38.2254 29.1193 39.2153 28.8367 39.8011C28.4243 40.6518 26.8136 41.3034 27.1776 41.9066C27.6151 42.3822 30.1744 42.9158 30.7087 43.5944C31.4502 44.5379 29.9963 44.6327 29.9963 44.6327C30.5655 45.0213 31.3108 45.6574 29.6866 46.1562C29.6866 46.1562 30.1318 47.0417 28.5269 47.3065C28.5269 47.3065 28.7012 48.018 27.5183 48.2984C26.5135 48.5362 17.3429 47.3626 17.25 47.2273L19.3699 40.7311Z" fill="#E69B90"/>
<path d="M27.6654 41.2691C27.6228 41.2691 27.5782 41.2498 27.5511 41.2111C27.5047 41.1493 27.5182 41.0603 27.5802 41.0139C27.9209 40.7626 28.8153 39.9796 28.856 39.3841C28.8618 39.3068 28.9276 39.2488 29.007 39.2526C29.0844 39.2584 29.1444 39.3261 29.1386 39.4034C29.0825 40.2522 27.8028 41.2015 27.7486 41.2421C27.7234 41.2614 27.6944 41.2691 27.6654 41.2691Z" fill="#D67570"/>
<path d="M29.5216 46.3648C29.0763 46.3648 28.6291 46.2275 28.3368 46.0902C28.2671 46.0574 28.2361 45.9723 28.269 45.9027C28.302 45.8331 28.3852 45.8022 28.4568 45.835C28.4723 45.8428 30.0075 46.5465 30.536 45.5392C30.5728 45.4696 30.6561 45.4426 30.7277 45.4793C30.7974 45.516 30.8226 45.6011 30.7877 45.6707C30.5128 46.1966 30.0191 46.3648 29.5235 46.3648H29.5216Z" fill="#D67570"/>
<path d="M28.3852 47.5128C27.9399 47.5128 27.4695 47.4683 27.3785 47.2924C27.3436 47.2228 27.3708 47.1377 27.4385 47.1029C27.4985 47.072 27.5682 47.0875 27.6108 47.1358C27.6379 47.1532 27.8257 47.246 28.5788 47.2267C28.662 47.2209 28.722 47.2866 28.724 47.3639C28.7259 47.4413 28.664 47.507 28.5865 47.5089C28.5207 47.5089 28.4529 47.5109 28.3852 47.5109V47.5128Z" fill="#D67570"/>
<path d="M29.9174 44.8041C28.9882 44.8041 28.3358 44.5759 28.3067 44.5663C28.2332 44.5392 28.1944 44.4599 28.2216 44.3864C28.2487 44.313 28.328 44.2743 28.4016 44.3014C28.4093 44.3033 29.1063 44.5469 30.0607 44.5218H30.0646C30.1401 44.5218 30.204 44.5817 30.2059 44.6591C30.2078 44.7364 30.1459 44.8021 30.0685 44.8041C30.0181 44.8041 29.9678 44.8041 29.9194 44.8041H29.9174Z" fill="#D67570"/>
<path d="M49.2973 38.9068C49.2973 38.9068 49.2837 38.9068 49.276 38.9068C49.1985 38.8952 49.1462 38.8236 49.1579 38.7463L50.5324 29.6381C50.544 29.5608 50.6176 29.5086 50.6931 29.5202C50.7705 29.5318 50.8228 29.6033 50.8112 29.6806L49.4366 38.7888C49.427 38.8584 49.365 38.9087 49.2973 38.9087V38.9068Z" fill="#5D49D3"/>
<path d="M51.1015 42.7381H51.0995L48.8074 42.7033C48.7299 42.7033 48.668 42.6376 48.668 42.5603C48.668 42.4829 48.7377 42.4172 48.8112 42.4211L51.1034 42.4559C51.1808 42.4559 51.2428 42.5216 51.2428 42.5989C51.2428 42.6763 51.1789 42.7381 51.1015 42.7381Z" fill="#D67570"/>
<path d="M34.7903 46.7566C34.7226 46.7566 34.6606 46.7102 34.6432 46.6406C33.9075 43.5356 35.4756 42.0411 35.5434 41.9792C35.6034 41.9231 35.6983 41.927 35.7564 41.9869C35.8125 42.0469 35.8086 42.1435 35.7486 42.1996C35.7331 42.2131 34.2444 43.6477 34.9375 46.571C34.9568 46.6522 34.9065 46.7334 34.8252 46.7527C34.8136 46.7547 34.8019 46.7566 34.7903 46.7566Z" fill="#FFC94D"/>
<path d="M35.4114 46.8425C35.3437 46.8425 35.2817 46.7961 35.2643 46.7265C34.5286 43.6215 36.0967 42.127 36.1645 42.0651C36.2245 42.0091 36.3194 42.0129 36.3775 42.0729C36.4336 42.1328 36.4297 42.2295 36.3697 42.2855C36.3542 42.2991 34.8655 43.7337 35.5585 46.6569C35.5779 46.7381 35.5276 46.8193 35.4463 46.8387C35.4346 46.8406 35.423 46.8425 35.4114 46.8425Z" fill="#FFC94D"/>
<path d="M36.0618 46.9402C35.994 46.9402 35.9321 46.8938 35.9147 46.8242C35.179 43.7192 36.7471 42.2247 36.8149 42.1628C36.8749 42.1067 36.9698 42.1106 37.0278 42.1705C37.084 42.2305 37.0801 42.3271 37.0201 42.3832C37.0046 42.3967 35.5159 43.8313 36.2089 46.7546C36.2283 46.8358 36.178 46.917 36.0967 46.9363C36.085 46.9383 36.0734 46.9402 36.0618 46.9402Z" fill="#FFC94D"/>
<path d="M36.7063 46.9402C36.6386 46.9402 36.5766 46.8938 36.5592 46.8242C35.8235 43.7192 37.3917 42.2247 37.4594 42.1628C37.5194 42.1067 37.6143 42.1106 37.6724 42.1705C37.7285 42.2305 37.7246 42.3271 37.6646 42.3832C37.6491 42.3967 36.1604 43.8313 36.8535 46.7546C36.8728 46.8358 36.8225 46.917 36.7412 46.9363C36.7296 46.9383 36.718 46.9402 36.7063 46.9402Z" fill="#FFC94D"/>
<path d="M37.3489 46.9402C37.2812 46.9402 37.2192 46.8938 37.2018 46.8242C36.4661 43.7192 38.0342 42.2247 38.102 42.1628C38.162 42.1067 38.2569 42.1106 38.315 42.1705C38.3711 42.2305 38.3672 42.3271 38.3072 42.3832C38.2917 42.3967 36.803 43.8313 37.496 46.7546C37.5154 46.8358 37.4651 46.917 37.3838 46.9363C37.3721 46.9383 37.3605 46.9402 37.3489 46.9402Z" fill="#FFC94D"/>
<path d="M19.0091 47.6969C18.9955 47.6969 18.98 47.6949 18.9665 47.6911C18.8929 47.6679 18.8503 47.5886 18.8735 47.5132L20.7727 41.481C20.7959 41.4075 20.8753 41.3669 20.9508 41.3882C21.0244 41.4114 21.067 41.4907 21.0437 41.5661L19.1446 47.5983C19.1252 47.6582 19.0691 47.6969 19.0091 47.6969Z" fill="#BDDCFF"/>
<path d="M65.1535 35.8739V57.9316C65.1535 59.533 63.8667 60.8294 62.2557 60.8484H27.5583V49.7052L22.4871 57.9316L20.676 60.8675C18.617 64.2038 13.584 63.4793 12.5449 59.7141L6.80652 39.0005C6.7112 38.6478 6.89231 38.2665 7.23547 38.1331L13.6507 35.6356C14.032 35.4926 14.4609 35.6928 14.5944 36.0836L17.4541 44.5864L21.5148 37.4467C21.8008 36.9511 22.1249 36.484 22.4871 36.0455C23.9646 34.263 26.0617 33.0619 28.3876 32.6901L43.1721 30.3643L59.2626 32.6139C61.6266 32.9475 63.6951 34.1486 65.1535 35.8739Z" fill="#3395FF"/>
<path d="M17.0531 46.3878L13.0686 34.6154C13.0686 34.6154 13.4022 32.6422 13.2116 31.0694C13.0591 29.8398 12.8494 28.7912 12.6111 28.1049C12.5348 27.8761 12.1821 27.7427 11.9152 27.8094C11.6483 27.8761 11.2861 28.1525 11.2193 28.5529C11.1812 28.8007 11.124 29.4871 11.1431 29.9065C11.1621 30.2782 10.7809 30.3354 10.6188 30.0685C10.2089 29.4203 8.30247 26.1222 7.41596 25.3691C6.72964 24.7877 6.10051 25.1689 6.51993 26.0078C6.72964 26.4272 8.49311 29.611 8.49311 29.611C8.49311 29.611 6.64385 26.4653 5.9194 25.6742C5.34746 25.0546 4.75646 25.3977 5.02337 26.0554C5.44279 27.1135 7.26345 30.3259 7.22532 30.1734C7.22532 30.1734 5.5953 27.104 4.89945 26.5225C4.51816 26.1984 4.00341 26.3891 4.29891 27.1326C4.77553 28.3623 6.20537 30.955 6.20537 30.955C6.20537 30.955 4.94711 28.5529 4.4419 28.1144C4.01295 27.7427 3.65072 28.0382 3.77464 28.4957C4.12733 29.7635 5.78595 34.2818 7.05374 37.2463C9.63698 46.5308 7.05374 37.2463 11.3051 52.3073C11.6102 53.394 17.034 46.3782 17.034 46.3782L17.0531 46.3878Z" fill="#E99E93"/>
<path d="M5.85421 31.9664C5.85421 31.9664 5.77796 31.9569 5.74936 31.9283C5.6731 31.8711 5.6445 31.7567 5.71123 31.6804C5.76842 31.5947 7.16967 29.6405 9.06659 29.0209C9.16191 28.9923 9.26677 29.04 9.29536 29.1353C9.32396 29.2306 9.2763 29.3355 9.18098 29.3641C7.38891 29.9456 6.01626 31.8711 6.00673 31.8901C5.9686 31.9378 5.92094 31.9664 5.86375 31.9664H5.85421Z" fill="#D67570"/>
<path d="M9.77093 33.1849C9.69467 33.1849 9.61841 33.1373 9.59935 33.0515C8.96069 30.8686 10.9434 30.0298 10.9625 30.0202C11.0483 29.9821 11.1626 30.0202 11.2008 30.1155C11.2389 30.2109 11.2008 30.3157 11.1054 30.3539C11.0387 30.3825 9.4087 31.0878 9.95204 32.9562C9.98064 33.0515 9.92345 33.1468 9.82812 33.1754C9.80906 33.1754 9.78999 33.1754 9.78046 33.1754L9.77093 33.1849Z" fill="#D67570"/>
<path d="M47.6222 60.658H39.291L39.434 31.1557L47.7366 31.0127L47.6222 60.658Z" fill="#F3F6FD"/>
<path d="M59.1943 60.791C59.1181 60.791 59.0609 60.7338 59.0609 60.6576L58.9941 49.4762C58.9941 49.4 59.0513 49.3428 59.1276 49.3428C59.2038 49.3428 59.261 49.4 59.261 49.4762L59.3278 60.6576C59.3278 60.7338 59.2706 60.791 59.1943 60.791Z" fill="#97E5F2"/>
<path d="M17.4539 44.5766L14.3559 35.3589L6.63477 38.3616L12.5448 59.7043C13.5838 63.4695 18.6168 64.1845 20.6758 60.8577L22.1438 58.4842L17.4634 44.5671L17.4539 44.5766Z" fill="white"/>
<mask id="mask0_2202_52934" style="mask-type:alpha" maskUnits="userSpaceOnUse" x="6" y="35" width="17" height="28">
<path d="M17.4558 44.5766L14.3579 35.3589L6.63672 38.3616L12.5467 59.7043C13.5857 63.4695 18.6188 64.1845 20.6777 60.8577L22.1457 58.4842L17.4654 44.5671L17.4558 44.5766Z" fill="white"/>
</mask>
<g mask="url(#mask0_2202_52934)">
<path d="M-1.39476 39.4829L-2.16797 39.7251L13.6181 90.1292L14.3913 89.887L-1.39476 39.4829Z" fill="#DCEEFF"/>
<path d="M0.570084 38.8677L-0.203125 39.1099L15.5829 89.514L16.3561 89.2718L0.570084 38.8677Z" fill="#DCEEFF"/>
<path d="M2.51735 38.2544L1.74414 38.4966L17.5302 88.9007L18.3034 88.6585L2.51735 38.2544Z" fill="#DCEEFF"/>
<path d="M4.47633 37.6499L3.70312 37.8921L19.4891 88.2962L20.2624 88.054L4.47633 37.6499Z" fill="#DCEEFF"/>
<path d="M3.51344 38.7569L2.74023 38.999L18.5263 89.4031L19.2995 89.161L3.51344 38.7569Z" fill="#DCEEFF"/>
<path d="M7.72355 36.8185L6.94336 37.0371L21.1957 87.8962L21.9758 87.6775L7.72355 36.8185Z" fill="#DCEEFF"/>
<path d="M9.65622 36.0663L8.87891 36.2949L23.7857 86.9759L24.563 86.7473L9.65622 36.0663Z" fill="#DCEEFF"/>
<path d="M11.7134 35.4195L10.9395 35.6592L26.5625 86.114L27.3365 85.8744L11.7134 35.4195Z" fill="#DCEEFF"/>
<path d="M13.6248 34.8389L12.8516 35.0811L28.6376 85.4852L29.4108 85.243L13.6248 34.8389Z" fill="#DCEEFF"/>
</g>
<path d="M49.6555 23.6819C49.665 22.9193 49.0835 22.2425 48.321 22.233C48.0255 22.233 47.7586 22.3188 47.5488 22.4808H47.5393L47.2819 17.8672L37.8164 17.4287L38.1024 27.104C38.131 28.1906 38.7124 28.8865 39.5608 29.4394C39.5608 29.4394 39.7705 29.7921 39.4941 29.7635L39.4464 32.3658C39.4464 34.7012 41.1718 36.5409 43.6216 36.4646C46.0904 36.3884 47.9301 34.3961 47.7586 31.9368L47.7109 25.8934C48.3782 25.8171 49.6459 25.2356 49.665 23.7009L49.6555 23.6819Z" fill="#E99E93"/>
<path d="M45.5358 19.1256V20.1456C45.5358 20.8319 45.8885 21.4706 46.47 21.8423C46.6415 21.9472 46.7464 22.1474 46.7369 22.3475L46.6606 23.7583L47.3469 23.682L48.1286 18.8015C48.3383 17.4765 47.2611 16.3041 45.9171 16.3994L45.3833 16.4375C41.7324 12.6723 36.9091 14.3976 38.0911 16.9046C37.1093 16.9046 35.8605 18.1057 36.3276 19.6785C36.7947 21.2513 38.5296 21.2227 39.9213 20.3743C41.6562 19.3163 44.0869 18.3821 45.5358 19.1256Z" fill="#1C3FCA"/>
<path d="M38.2264 25.874L38.3885 22.4709C38.3218 22.3375 37.0635 21.7846 36.4153 22.9952C35.7671 24.2058 36.9968 25.7691 38.2264 25.8644V25.874Z" fill="#E99E93"/>
<path d="M38.0369 25.2752C38.0369 25.2752 38.075 25.6088 38.2371 25.9615C38.5516 26.6478 39.5048 26.705 39.9243 26.0759L40.0768 25.8376C40.3532 25.4182 40.8203 25.1703 41.3255 25.1703H42.6791C43.232 25.1703 43.7372 25.4944 43.9659 25.9997C44.29 26.7146 45.2337 26.8862 45.7771 26.3142C46.2251 25.8471 46.6159 25.0369 46.6731 23.6166L47.2546 23.283L47.3499 23.6738L46.9019 27.5629C46.7208 29.0976 45.4244 30.251 43.8802 30.251H41.0681C39.3905 30.251 38.0273 28.8879 38.0273 27.2103V25.2561L38.0369 25.2752Z" fill="#1C3FCA"/>
<path d="M44.0898 25.2749C43.9945 25.2749 43.8991 25.2749 43.8134 25.2558C43.2891 25.1796 42.822 24.9031 42.5074 24.4837C42.1929 24.0643 42.0594 23.54 42.1261 23.0157C42.2024 22.4915 42.4788 22.0244 42.8983 21.7098C43.3272 21.3953 43.8515 21.2618 44.3662 21.3285C45.4529 21.4811 46.206 22.4915 46.0534 23.5686C45.9105 24.56 45.0621 25.2749 44.0898 25.2749ZM44.0898 21.5573C43.718 21.5573 43.3558 21.6717 43.0603 21.9005C42.6885 22.1769 42.4502 22.5868 42.3835 23.0443C42.3168 23.5019 42.4312 23.9594 42.7076 24.3217C42.984 24.6839 43.3939 24.9317 43.8515 24.9985C44.7952 25.1414 45.6721 24.4742 45.8056 23.5305C45.8723 23.0729 45.7579 22.6154 45.4815 22.2436C45.2051 21.8719 44.7952 21.6336 44.3376 21.5668C44.2518 21.5573 44.1756 21.5478 44.0898 21.5478V21.5573Z" fill="white"/>
<path d="M39.5815 25.2749C39.4861 25.2749 39.3908 25.2749 39.305 25.2558C38.7807 25.1796 38.3137 24.9031 37.9991 24.4837C37.6845 24.0548 37.5415 23.54 37.6178 23.0157C37.6941 22.4915 37.9705 22.0244 38.3899 21.7098C38.8189 21.3953 39.3431 21.2618 39.8579 21.3285C40.3822 21.4048 40.8492 21.6812 41.1638 22.1007C41.4784 22.5201 41.6118 23.0443 41.5451 23.5686C41.4021 24.56 40.5537 25.2749 39.5815 25.2749ZM39.5815 21.5573C39.2097 21.5573 38.8475 21.6717 38.552 21.9005C38.1802 22.1769 37.9419 22.5868 37.8752 23.0443C37.8085 23.5019 37.9228 23.9594 38.2088 24.3217C38.4948 24.6839 38.8856 24.9317 39.3431 24.9985C40.3059 25.1414 41.1638 24.4742 41.2973 23.5305C41.4307 22.5868 40.773 21.7098 39.8293 21.5764C39.7435 21.5668 39.6672 21.5573 39.5815 21.5573Z" fill="white"/>
<path d="M42.4696 22.5098L41.1923 22.4908C41.1256 22.4908 41.0684 22.4336 41.0684 22.3573C41.0684 22.2906 41.1256 22.2334 41.1923 22.2334L42.4696 22.2525C42.5363 22.2525 42.5935 22.3097 42.5935 22.3859C42.5935 22.4526 42.5363 22.5098 42.4696 22.5098Z" fill="white"/>
<path d="M33.5035 51.2105L32.1417 37.5721C31.8794 34.9292 29.8821 32.7805 27.2694 32.3165L18.4327 30.7529L12.7938 30.9849L5.15751 32.145C2.50449 32.5485 0.456724 34.6871 0.174273 37.3603L-1.30859 51.3416L33.5136 51.2105H33.5035Z" fill="#8262F9"/>
<path d="M10.149 51.2916L21.8909 51.2613L21.8304 31.3485L18.4309 30.7534L15.3239 30.6323L9.94727 31.4595L10.149 51.2916Z" fill="#FFCC4D"/>
<path d="M27.4996 51.3724C27.429 51.3724 27.3685 51.3119 27.3685 51.2413L27.3281 40.5989C27.3281 40.5283 27.3886 40.4678 27.4593 40.4678C27.5299 40.4678 27.5904 40.5283 27.5904 40.5989L27.6308 51.2413C27.6308 51.3119 27.5702 51.3724 27.4996 51.3724Z" fill="#5D49D6"/>
<path d="M5.38047 51.4629C5.30986 51.4629 5.24934 51.4024 5.24934 51.3318L5.20898 40.6995C5.20898 40.6289 5.26951 40.5684 5.34012 40.5684C5.41074 40.5684 5.47126 40.6289 5.47126 40.6995L5.51161 51.3318C5.51161 51.4024 5.45109 51.4629 5.38047 51.4629Z" fill="#5D49D6"/>
<path d="M20.3694 36.7251C20.5087 36.7251 20.6216 36.6122 20.6216 36.4729C20.6216 36.3336 20.5087 36.2207 20.3694 36.2207C20.2301 36.2207 20.1172 36.3336 20.1172 36.4729C20.1172 36.6122 20.2301 36.7251 20.3694 36.7251Z" fill="white"/>
<path d="M20.51 42.3638C20.6493 42.3638 20.7622 42.2508 20.7622 42.1116C20.7622 41.9723 20.6493 41.8594 20.51 41.8594C20.3707 41.8594 20.2578 41.9723 20.2578 42.1116C20.2578 42.2508 20.3707 42.3638 20.51 42.3638Z" fill="white"/>
<path d="M16.678 39.2261C16.8172 39.2261 16.9302 39.1131 16.9302 38.9739C16.9302 38.8346 16.8172 38.7217 16.678 38.7217C16.5387 38.7217 16.4258 38.8346 16.4258 38.9739C16.4258 39.1131 16.5387 39.2261 16.678 39.2261Z" fill="white"/>
<path d="M21.2483 32.7514C21.3876 32.7514 21.5005 32.6385 21.5005 32.4993C21.5005 32.36 21.3876 32.2471 21.2483 32.2471C21.109 32.2471 20.9961 32.36 20.9961 32.4993C20.9961 32.6385 21.109 32.7514 21.2483 32.7514Z" fill="white"/>
<path d="M19.4612 47.1662C19.6005 47.1662 19.7134 47.0533 19.7134 46.9141C19.7134 46.7748 19.6005 46.6619 19.4612 46.6619C19.3219 46.6619 19.209 46.7748 19.209 46.9141C19.209 47.0533 19.3219 47.1662 19.4612 47.1662Z" fill="white"/>
<path d="M12.5217 40.6597C12.661 40.6597 12.7739 40.5467 12.7739 40.4075C12.7739 40.2682 12.661 40.1553 12.5217 40.1553C12.3824 40.1553 12.2695 40.2682 12.2695 40.4075C12.2695 40.5467 12.3824 40.6597 12.5217 40.6597Z" fill="white"/>
<path d="M15.9612 43.2319C16.1005 43.2319 16.2134 43.119 16.2134 42.9797C16.2134 42.8404 16.1005 42.7275 15.9612 42.7275C15.8219 42.7275 15.709 42.8404 15.709 42.9797C15.709 43.119 15.8219 43.2319 15.9612 43.2319Z" fill="white"/>
<path d="M14.7698 46.9341C14.909 46.9341 15.022 46.8212 15.022 46.6819C15.022 46.5426 14.909 46.4297 14.7698 46.4297C14.6305 46.4297 14.5176 46.5426 14.5176 46.6819C14.5176 46.8212 14.6305 46.9341 14.7698 46.9341Z" fill="white"/>
<path d="M16.7268 50.5054C16.8661 50.5054 16.979 50.3924 16.979 50.2532C16.979 50.1139 16.8661 50.001 16.7268 50.001C16.5875 50.001 16.4746 50.1139 16.4746 50.2532C16.4746 50.3924 16.5875 50.5054 16.7268 50.5054Z" fill="white"/>
<path d="M12.0784 50.02C12.2176 50.02 12.3305 49.9071 12.3305 49.7678C12.3305 49.6285 12.2176 49.5156 12.0784 49.5156C11.9391 49.5156 11.8262 49.6285 11.8262 49.7678C11.8262 49.9071 11.9391 50.02 12.0784 50.02Z" fill="white"/>
<path d="M11.1506 45.4106C11.2899 45.4106 11.4028 45.2977 11.4028 45.1584C11.4028 45.0192 11.2899 44.9062 11.1506 44.9062C11.0113 44.9062 10.8984 45.0192 10.8984 45.1584C10.8984 45.2977 11.0113 45.4106 11.1506 45.4106Z" fill="white"/>
<path d="M10.8674 36.5141C11.0067 36.5141 11.1196 36.4012 11.1196 36.262C11.1196 36.1227 11.0067 36.0098 10.8674 36.0098C10.7281 36.0098 10.6152 36.1227 10.6152 36.262C10.6152 36.4012 10.7281 36.5141 10.8674 36.5141Z" fill="white"/>
<path d="M15.3557 35.6157C15.495 35.6157 15.6079 35.5028 15.6079 35.3635C15.6079 35.2242 15.495 35.1113 15.3557 35.1113C15.2164 35.1113 15.1035 35.2242 15.1035 35.3635C15.1035 35.5028 15.2164 35.6157 15.3557 35.6157Z" fill="white"/>
<path d="M10.7248 33.2558C10.8641 33.2558 10.977 33.1429 10.977 33.0037C10.977 32.8644 10.8641 32.7515 10.7248 32.7515C10.5856 32.7515 10.4727 32.8644 10.4727 33.0037C10.4727 33.1429 10.5856 33.2558 10.7248 33.2558Z" fill="white"/>
<path d="M16.0437 19.435C17.4755 19.435 18.6362 18.2743 18.6362 16.8425C18.6362 15.4107 17.4755 14.25 16.0437 14.25C14.6119 14.25 13.4512 15.4107 13.4512 16.8425C13.4512 18.2743 14.6119 19.435 16.0437 19.435Z" fill="#1C3FCA"/>
<path d="M16.0014 16.278C15.0027 16.278 14.0848 16.7016 13.5098 17.3674C13.7519 18.5275 14.7505 19.4051 15.9812 19.4354C17.1715 19.4656 18.2005 18.6889 18.5233 17.5994C17.9685 16.8832 17.0404 16.2679 15.9913 16.278H16.0014Z" fill="#3395FF"/>
<path d="M20.7333 21.7387C20.7233 18.9041 18.3123 16.6445 15.4374 16.8563C12.855 17.048 10.898 19.2874 10.9081 21.8799C10.9081 22.6163 10.6357 23.3224 10.1515 23.8671L10.091 23.9378C9.4353 24.6641 9.07215 25.6123 9.08224 26.5908V26.6916C9.08224 27.9122 9.81863 29.0118 10.9484 29.4859C14.1462 30.8174 17.7373 30.8074 20.9149 29.4455C22.0346 28.9714 22.7609 27.8618 22.7609 26.6412C22.7609 25.6022 22.3373 24.6035 21.6009 23.8671C21.0461 23.3123 20.7333 22.5658 20.7333 21.7891V21.7387Z" fill="#1C3FCA"/>
<path d="M13.1778 26.6579L13.1072 29.6741C13.087 30.4206 12.5423 31.046 11.816 31.167L10.6055 31.3688C13.1173 35.0003 18.4435 35.1214 21.1268 31.6008L21.389 31.2578L19.8356 30.9855C19.1193 30.8644 18.5847 30.2491 18.5544 29.5127L18.4031 25.4272L13.1879 26.6478L13.1778 26.6579Z" fill="#E99E93"/>
<path d="M18.445 26.8901L18.5056 28.8068C18.5056 28.8068 16.4174 29.6239 14.9648 28.3327L18.445 26.8901Z" fill="#D67570"/>
<path d="M12.2495 21.5945C12.2495 21.5945 11.4324 28.7365 15.7297 28.7264C20.027 28.7163 19.1393 21.998 19.1393 21.998L18.4634 20.2428L15.2657 18.5481L13.4802 19.4257L12.2495 21.5945Z" fill="#E99E93"/>
<path d="M19.0283 23.5616C19.0686 22.5831 20.5717 22.6033 20.5717 23.723C20.5717 24.7217 19.6638 25.3269 19.1493 25.3269H18.877L19.0283 23.5616Z" fill="#E99E93"/>
<path d="M12.3989 23.5719C12.3484 22.5934 10.8555 22.6337 10.8555 23.7434C10.8555 24.742 11.7734 25.3372 12.298 25.3372H12.5704L12.3989 23.5719Z" fill="#E99E93"/>
<path d="M15.7596 29.0888C15.2047 29.0888 14.6802 28.9577 14.1859 28.6853C14.0548 28.6147 14.0043 28.4533 14.0749 28.3221C14.1456 28.191 14.307 28.1406 14.4381 28.2112C15.1039 28.5743 15.8403 28.6449 16.6372 28.423C16.7784 28.3827 16.9297 28.4634 16.9701 28.6147C17.0104 28.7559 16.9297 28.9072 16.7784 28.9476C16.4253 29.0384 16.0925 29.0888 15.7596 29.0888Z" fill="#D67570"/>
<path d="M19.2298 23.2485C19.2298 23.2485 18.2916 22.4718 18.3219 21.3319C18.3219 21.3319 16.8289 21.1907 15.568 22.0784C14.5593 22.7845 13.4496 23.2687 12.1887 23.0569L11.8457 21.7354C11.8457 21.7354 12.1786 20.2122 12.1786 20.1113C12.1786 20.0104 13.7522 18.6587 13.7522 18.6587C13.7522 18.6587 16.7281 18.4469 16.7987 18.5477C16.8693 18.6486 18.0798 19.4859 18.0798 19.4859L18.7557 20.1819L19.714 21.2815L19.2298 23.2485Z" fill="#1C3FCA"/>
<path d="M17.4249 25.5779C17.0214 25.5779 16.6482 25.4266 16.3657 25.1442C16.0833 24.8617 15.9219 24.4784 15.9219 24.0749C15.9219 23.6714 16.0732 23.2881 16.3556 23.0056C16.6381 22.7232 17.0214 22.5618 17.4249 22.5618C17.8284 22.5618 18.2017 22.7131 18.4841 22.9955C18.7666 23.278 18.928 23.6613 18.928 24.0648C18.928 24.4683 18.7766 24.8516 18.4942 25.1341C18.2117 25.4165 17.8284 25.5779 17.4249 25.5779ZM17.4249 22.7635C17.0819 22.7635 16.7491 22.9047 16.5069 23.1468C16.2648 23.3889 16.1337 23.7218 16.1337 24.0648C16.1337 24.4078 16.2749 24.7407 16.517 24.9828C16.7591 25.2249 17.0819 25.356 17.435 25.356C18.1512 25.356 18.7363 24.7709 18.7262 24.0547C18.7262 23.7117 18.585 23.3789 18.3429 23.1368C18.1008 22.8947 17.778 22.7635 17.4249 22.7635Z" fill="white"/>
<path d="M13.9445 25.5777C13.5409 25.5777 13.1677 25.4264 12.8853 25.1439C12.6028 24.8615 12.4414 24.4782 12.4414 24.0747C12.4414 23.6712 12.5927 23.2878 12.8752 23.0054C13.1576 22.7229 13.5409 22.5615 13.9445 22.5615C14.348 22.5615 14.7212 22.7128 15.0036 22.9953C15.2861 23.2777 15.4475 23.6611 15.4475 24.0646C15.4475 24.9018 14.7716 25.5777 13.9445 25.5777ZM13.9445 22.7633C13.6015 22.7633 13.2686 22.9045 13.0265 23.1466C12.7844 23.3887 12.6532 23.7216 12.6532 24.0646C12.6532 24.4075 12.7945 24.7404 13.0366 24.9825C13.2787 25.2246 13.6015 25.3558 13.9545 25.3558C14.6708 25.3558 15.2457 24.7707 15.2457 24.0545C15.2457 23.7115 15.1045 23.3786 14.8624 23.1365C14.6203 22.8944 14.2975 22.7633 13.9545 22.7633H13.9445Z" fill="white"/>
<path d="M15.0032 23.2474C14.9528 23.2474 14.9023 23.2071 14.9023 23.1465C14.9023 23.0961 14.9427 23.0457 15.0032 23.0457H16.355C16.4054 23.0457 16.4558 23.086 16.4558 23.1465C16.4558 23.197 16.4155 23.2474 16.355 23.2474H15.0032Z" fill="white"/>
<path d="M34.392 62.2123L33.6566 53.5344C33.4395 50.9787 33.3009 50.0846 30.7982 49.6377L23.1429 47.3882L18.9052 47.5683L10.9175 50.0497C10.9175 50.0497 9.36538 50.8377 9.14178 53.4432L8.38281 62.3078L34.3898 62.2123H34.392Z" fill="#3395FF"/>
<path d="M30.2832 55.5101C31.9313 55.6749 33.2705 54.9264 33.6825 54.4801C33.9915 54.377 34.0829 55.1803 33.8885 55.407C33.3941 55.9839 31.8283 56.7462 30.2832 56.7462C30.3175 56.6432 30.2832 56.1281 30.2832 55.5101Z" fill="white"/>
<path d="M33.8874 56.6443L33.8885 56.6431V55.407C33.3941 55.9838 31.8283 56.7461 30.2832 56.7461C30.3175 56.6431 30.2832 59.2183 30.2832 58.6003C31.9299 58.765 33.4738 57.0924 33.8874 56.6443Z" fill="#E99E93"/>
<path d="M12.5645 55.5099C10.9163 55.6747 9.57719 54.9262 9.16516 54.4798C8.85613 54.3768 8.76471 55.1801 8.95914 55.4069C9.45358 55.9837 11.0193 56.746 12.5645 56.746C12.5301 56.643 12.5645 56.1279 12.5645 55.5099Z" fill="white"/>
<path d="M12.5645 59.4236C10.9163 59.5884 9.16611 57.1918 8.75408 56.7454C8.75408 56.6424 8.95914 55.7153 8.95914 55.4062C9.45358 55.9831 11.0193 56.7454 12.5645 56.7454C12.5301 56.6424 12.5645 60.0417 12.5645 59.4236Z" fill="#E99E93"/>
<path d="M25.6458 40.6286C29.9744 32.9506 16.1712 32.0235 17.2574 36.2469C13.905 37.6891 17.0771 41.3863 16.7892 41.7064L16.7269 41.7758C16.0819 42.4961 19.6872 43.1409 19.6915 44.1106V44.2126C19.6958 45.4232 20.4204 46.5144 21.5277 46.9787C20.533 48.2999 18.7105 48.2847 21.8367 46.9396C22.9397 46.4645 23.6556 45.3689 23.6513 44.1584C23.647 43.1257 25.7545 42.1386 25.03 41.4118C24.4882 40.8672 26.017 42.7351 25.648 40.6763V40.6264" fill="#1C3FCA"/>
<path d="M18.6345 43.6612L18.6496 46.5965C18.6517 47.1779 18.2325 47.6726 17.6627 47.7593L16.0684 48.4016C18.9526 52.934 24.4121 52.831 26.6783 48.4016L24.7127 47.6812C24.2161 47.5945 23.8505 47.1649 23.8376 46.6572L23.7387 42.6719L18.6345 43.659V43.6612Z" fill="white"/>
<path d="M18.6322 43.6609L18.6473 46.5962C18.6494 47.1777 18.1262 47.5773 17.6604 47.7591L16.7871 48.0923C18.9503 51.8006 24.4098 51.3886 26.1609 48.1953L24.7104 47.681C24.2038 47.4742 23.8482 47.1646 23.8353 46.657L23.7364 42.6716L18.6322 43.6587V43.6609Z" fill="#E99E93"/>
<path d="M23.7639 43.7197L23.8262 46.2624C23.8262 46.2624 21.6203 47.0347 20.0938 45.7873L23.7617 43.7219L23.7639 43.7197Z" fill="#D67570"/>
<path d="M16.9936 39.8521C16.9936 39.8521 16.1752 46.078 21.0881 46.0585C25.9515 46.039 24.9969 39.8234 24.9969 39.8234L24.8764 38.1789L23.6316 37.2091L20.5656 36.6299L18.5188 37.4478L16.8906 39.3371L16.9936 39.8521Z" fill="#E99E93"/>
<path d="M24.7009 41.1119C24.7417 40.1986 26.1672 40.2224 26.1715 41.2616C26.1758 42.1902 25.3115 42.7521 24.8148 42.7542H24.5547L24.7009 41.1119Z" fill="#E99E93"/>
<path d="M17.3359 41.129C17.295 40.2157 15.8696 40.2395 15.8653 41.2787C15.861 42.2073 16.7253 42.7692 17.2219 42.7713H17.4821L17.3359 41.129Z" fill="#E99E93"/>
<path d="M21.2719 46.287C20.4765 46.2949 19.8548 46.0516 19.6107 45.939C19.5653 45.9178 19.5455 45.8659 19.5665 45.8202C19.5875 45.7744 19.6411 45.7565 19.6843 45.7756C20.0688 45.954 21.4372 46.4697 22.8958 45.6893C22.9407 45.665 22.9925 45.6818 23.0166 45.7272C23.0407 45.7703 23.024 45.8247 22.9791 45.849C22.376 46.1718 21.7879 46.2818 21.2719 46.287Z" fill="#D67570"/>
<path d="M17.4066 41.1919H17.0976L16.6855 39.6468L16.9946 38.2046L18.8487 36.4535L21.0119 35.7324L24.7202 37.1745L25.2353 38.7197L25.1323 41.1919H24.7202C24.6516 40.6425 24.9263 38.8227 24.9263 38.4107C22.042 39.8528 18.5397 38.3076 17.9217 38.1016C17.8392 38.9257 17.2693 39.3377 16.9946 39.4407L17.4066 41.1919Z" fill="#1C3FCA"/>
<path d="M57.3133 60.65L56.5411 51.5369C56.3131 48.8531 54.3262 46.6591 51.698 46.1898L45.5002 45.0825L41.05 45.2716L35.7846 46.0758C33.0933 46.4882 31.0318 48.705 30.797 51.4412L30 60.7502L57.3111 60.65H57.3133Z" fill="#E67FDC"/>
<path d="M42.3885 49.9146C42.5782 49.9488 42.7475 50.0558 42.8469 50.2222L43.2962 50.9671C43.4113 51.1608 43.6936 51.1517 43.7974 50.9512L44.1767 50.2267C44.2671 50.0536 44.4274 49.9283 44.617 49.8895C46.1817 49.582 47.666 48.6416 48.7251 47.13L49.6515 45.8041L46.7485 45.3033L45.4999 45.0801L41.0496 45.2692L37.3692 45.8045L38.0736 46.8827C39.0875 48.5137 40.6884 49.6139 42.3885 49.9123V49.9146Z" fill="white"/>
<path d="M48.2838 36.5935C48.2725 33.6454 45.7889 31.2874 42.8221 31.5152C40.1555 31.718 38.137 34.0441 38.1483 36.7416C38.1505 37.5048 37.8728 38.243 37.3648 38.808L37.2993 38.8809C36.622 39.6373 36.2494 40.6215 36.2539 41.6399V41.747C36.2585 43.0183 37.0194 44.1642 38.1822 44.6518C41.4764 46.0392 45.186 46.0233 48.469 44.6108C49.6272 44.1118 50.3791 42.9613 50.3746 41.69C50.3701 40.6056 49.9411 39.5689 49.1802 38.8057C48.6112 38.2339 48.2883 37.4547 48.2861 36.6436V36.5912" fill="#1C3FCA"/>
<path d="M40.7661 41.1688L40.7819 44.2513C40.7842 44.8619 40.3439 45.3813 39.7455 45.4724L38.5195 45.6593L39.2985 46.787C41.2764 49.6554 45.4512 49.7442 47.5487 46.9624L48.5489 45.6365L47.1491 45.3904C46.6275 45.2993 46.2437 44.8482 46.2301 44.3151L46.1263 40.1299L40.7661 41.1665V41.1688Z" fill="#E99E93"/>
<path d="M46.153 41.2305L46.2185 43.9006C46.2185 43.9006 43.9019 44.7117 42.2988 43.4017L46.1507 41.2327L46.153 41.2305Z" fill="#D67570"/>
<path d="M39.1665 36.7533C39.1665 36.7533 38.1843 43.7066 43.3435 43.6861C48.4508 43.6656 47.4483 37.1383 47.4483 37.1383L47.3219 35.4114L46.0146 34.393L42.7949 33.7847L40.6454 34.6436L39.1642 36.7533H39.1665Z" fill="#E99E93"/>
<path d="M47.5175 37.8808C47.5175 37.8808 47.6327 35.7233 46.1764 34.4999C44.7855 37.2224 42.4915 39.0086 39.0957 37.9401V36.6118C39.0957 36.6118 40.053 35.3383 40.0576 35.2426C40.0621 35.1469 41.5116 33.887 41.5116 33.887C41.5116 33.887 44.2572 33.6865 44.3249 33.7799C44.3926 33.8734 45.7428 33.7549 45.7428 33.7549L46.5195 34.4361L47.434 35.2289L47.5198 37.8808H47.5175Z" fill="#1C3FCA"/>
<path d="M47.136 38.4914C47.1789 37.5322 48.6758 37.5573 48.6803 38.6486C48.6848 39.6237 47.7772 40.2138 47.2556 40.2161H46.9824L47.136 38.4914Z" fill="#E99E93"/>
<path d="M39.4018 38.5097C39.3589 37.5506 37.862 37.5756 37.8574 38.6669C37.8529 39.642 38.7606 40.2321 39.2821 40.2344H39.5553L39.4018 38.5097Z" fill="#E99E93"/>
<path d="M43.5357 43.9257C42.7003 43.934 42.0475 43.6785 41.7911 43.5603C41.7435 43.538 41.7226 43.4835 41.7447 43.4354C41.7668 43.3874 41.8231 43.3686 41.8685 43.3886C42.2722 43.576 43.7092 44.1176 45.241 43.298C45.2881 43.2725 45.3425 43.2902 45.3678 43.3378C45.3931 43.3831 45.3756 43.4402 45.3284 43.4658C44.6951 43.8047 44.0775 43.9203 43.5357 43.9257Z" fill="#D67570"/>
<path d="M42.7529 38.6374C42.7146 38.6374 42.6784 38.6123 42.6649 38.5736C42.6491 38.5235 42.6739 38.4711 42.7236 38.4528C45.4827 37.4959 45.9456 34.361 45.9501 34.3291C45.9569 34.2767 46.0088 34.2426 46.0562 34.2494C46.1081 34.2562 46.142 34.3041 46.1352 34.3565C46.1307 34.3884 45.652 37.6372 42.7846 38.6328C42.7755 38.6351 42.7642 38.6374 42.7552 38.6374H42.7529Z" fill="#1C3FCA"/>
</g>
<defs>
<clipPath id="clip0_2202_52934">
<rect width="60" height="60" rx="30" fill="white"/>
</clipPath>
</defs>
</svg>
