<svg width="160" height="160" viewBox="0 0 160 160" fill="none" xmlns="http://www.w3.org/2000/svg">
<rect opacity="0.15" width="160" height="160" rx="12" fill="#007AFF"/>
<path d="M120.221 115.603L120.634 115.01C119.642 113.219 119.422 110.718 120.234 107.909C121.871 102.161 127.142 97.3158 132 97.071C132.387 97.0452 132.761 97.071 133.121 97.1096L133.444 96.6328L135.48 97.8957C137.954 99.4293 138.985 102.896 137.8 107.033C136.163 112.78 130.892 117.626 126.034 117.871C124.719 117.935 123.572 117.652 122.631 117.098L120.209 115.603H120.221Z" fill="#FF9D00"/>
<path d="M133.102 110.699C136.863 105.541 137.092 99.3021 133.613 96.765C130.134 94.2279 124.264 96.353 120.502 101.511C116.741 106.67 116.512 112.908 119.991 115.445C123.47 117.982 129.34 115.857 133.102 110.699Z" fill="#FFCC4D"/>
<path d="M123.495 114.791C122.232 114.791 121.188 114.327 120.453 113.412C119.242 111.917 119.062 109.481 119.964 106.736C121.51 102.02 125.789 97.8443 129.526 97.4319C131.06 97.2515 132.335 97.7283 133.186 98.7722C134.397 100.267 134.578 102.703 133.676 105.448C132.129 110.164 127.851 114.34 124.113 114.752C123.907 114.778 123.701 114.791 123.495 114.791ZM120.518 106.917C119.693 109.443 119.835 111.724 120.904 113.038C121.626 113.927 122.709 114.301 124.036 114.159C127.554 113.76 131.627 109.778 133.096 105.254C133.92 102.729 133.779 100.448 132.709 99.133C131.987 98.2438 130.905 97.8572 129.578 98.0118C126.059 98.4113 121.987 102.406 120.518 106.917Z" fill="#FF9D00"/>
<path d="M121.793 68.3984H32.2661V120.759H121.793V68.3984Z" fill="#3391FF"/>
<path d="M57.6279 76.9414C65.0122 76.9414 71.0047 82.9339 71.0047 90.3183V125.681H44.2639V90.3183C44.2639 82.9339 50.2564 76.9414 57.6408 76.9414H57.6279Z" fill="#0967D4"/>
<path d="M96.4187 76.9414C103.803 76.9414 109.796 82.9339 109.796 90.3183V125.681H83.0547V90.3183C83.0547 82.9339 89.0472 76.9414 96.4315 76.9414H96.4187Z" fill="#0967D4"/>
<path d="M79.0207 28.1385L129.216 59.6218C131.007 60.743 130.208 63.5008 128.095 63.5008H25.9385C23.8251 63.5008 23.0389 60.743 24.8174 59.6218L75.0257 28.1385C76.2499 27.3653 77.8093 27.3653 79.0336 28.1385H79.0207Z" fill="#3391FF"/>
<path d="M77.9511 36.6555L107.978 55.4836C108.455 55.78 108.236 56.5146 107.682 56.5146H46.4292C45.875 56.5146 45.6559 55.78 46.1328 55.4836L76.1598 36.6555C76.7139 36.3075 77.4098 36.3075 77.9511 36.6555Z" fill="#0967D4"/>
<path d="M26.3122 63.4883H127.747V65.5244C127.747 67.1096 126.458 68.3983 124.873 68.3983H29.1732C27.588 68.3983 26.2993 67.1096 26.2993 65.5244V63.4883H26.3122Z" fill="#1C3FC6"/>
<path d="M29.0317 125.668H125.002C126.652 125.668 127.979 127.008 127.979 128.645V132.292H26.0548V128.645C26.0548 126.995 27.3951 125.668 29.0317 125.668Z" fill="#3391FF"/>
<path d="M47.3573 125.668H29.1091V123.709C29.1091 122.085 30.4365 120.758 32.0603 120.758H44.4061C46.0299 120.758 47.3573 122.085 47.3573 123.709V125.668Z" fill="#1C3FC6"/>
<path d="M86.1476 125.668H67.8994V123.709C67.8994 122.085 69.2268 120.758 70.8506 120.758H83.1964C84.8202 120.758 86.1476 122.085 86.1476 123.709V125.668Z" fill="#1C3FC6"/>
<path d="M124.873 125.668H106.625V123.709C106.625 122.085 107.952 120.758 109.576 120.758H121.922C123.546 120.758 124.873 122.085 124.873 123.709V125.668Z" fill="#1C3FC6"/>
<path d="M46.0817 49.7117L45.6694 49.1188C46.6617 47.3146 46.8807 44.8145 46.0689 42.0051C44.4193 36.2446 39.1485 31.3861 34.29 31.1413C33.9034 31.1155 33.5168 31.1413 33.1559 31.1799L32.8209 30.7031L30.7718 31.9661C28.2846 33.4996 27.2665 36.9792 28.4521 41.1288C30.1017 46.8894 35.3725 51.7478 40.231 51.9927C41.5455 52.0571 42.6924 51.7736 43.6461 51.2194L46.0689 49.7117H46.0817Z" fill="#FF9D00"/>
<path d="M46.3091 49.5503C49.794 47.009 49.563 40.7578 45.793 35.5879C42.023 30.418 36.1417 28.287 32.6568 30.8283C29.1718 33.3696 29.4029 39.6207 33.1728 44.7907C36.9428 49.9606 42.8241 52.0916 46.3091 49.5503Z" fill="#FFCC4D"/>
<path d="M42.8083 48.9004C42.6021 48.9004 42.4088 48.9004 42.1897 48.8618C38.4525 48.4494 34.1482 44.2611 32.6146 39.5315C31.7125 36.7737 31.8929 34.338 33.1043 32.8431C33.9549 31.7863 35.2307 31.3353 36.7771 31.5028C40.5144 31.9152 44.8058 36.1035 46.3523 40.8202C47.2544 43.5781 47.074 46.0137 45.8626 47.5086C45.128 48.4107 44.0713 48.8876 42.8083 48.8876V48.9004ZM36.1714 32.057C35.0889 32.057 34.1868 32.4565 33.5682 33.2168C32.4986 34.5313 32.3569 36.8252 33.1816 39.3511C34.6636 43.8745 38.736 47.8824 42.2671 48.269C43.6073 48.4236 44.6898 48.0241 45.4115 47.1349C46.4812 45.8204 46.6229 43.5265 45.7981 41.0006C44.3161 36.4772 40.2438 32.4822 36.7127 32.0827C36.5323 32.057 36.3519 32.057 36.1714 32.057Z" fill="#FF9D00"/>
</svg>
