<svg width="32" height="32" viewBox="0 0 32 32" fill="none" xmlns="http://www.w3.org/2000/svg">
<path d="M0 8C0 3.58172 3.58172 0 8 0H24C28.4183 0 32 3.58172 32 8V24C32 28.4183 28.4183 32 24 32H8C3.58172 32 0 28.4183 0 24V8Z" fill="#EBF9EF"/>
<rect width="24" height="24" transform="translate(4 3.66406)" fill="#EBF9EF"/>
<path d="M15.7789 25.6639C10.538 25.5533 6.22211 21.3789 6.00748 16.07C5.78437 10.5516 10.077 5.89727 15.5954 5.67417C20.7433 5.46604 25.1394 9.18782 25.8874 14.1685" stroke="#111827" stroke-width="1.5" stroke-linecap="round" stroke-linejoin="round"/>
<path d="M15.1582 21.2891L11 17.2311V15.9456H14.3806C14.9096 15.9456 15.3328 15.8165 15.6502 15.5584C15.9677 15.2899 16.1687 14.9285 16.2533 14.4742H11V13.4055H16.2692C16.2057 12.9512 16.0206 12.5949 15.7137 12.3368C15.4175 12.0683 14.9889 11.9341 14.4282 11.9341H11V10.6641H19.3482V11.7328H17.158C17.359 11.9496 17.5125 12.2026 17.6183 12.4917C17.7241 12.7808 17.7928 13.0854 17.8246 13.4055H19.3482V14.4742H17.7928C17.7294 15.0214 17.5601 15.5016 17.285 15.9146C17.0099 16.3276 16.6395 16.6529 16.174 16.8904C15.7084 17.1175 15.1424 17.2311 14.4758 17.2311H13.1426L17.2691 21.2891H15.1582Z" fill="#111827"/>
<path d="M22.8163 20.7145C23.8765 20.7145 24.736 19.855 24.736 18.7948C24.736 17.7345 23.8765 16.875 22.8163 16.875C21.756 16.875 20.8965 17.7345 20.8965 18.7948C20.8965 19.855 21.756 20.7145 22.8163 20.7145Z" stroke="#111827" stroke-width="1.5" stroke-linecap="round" stroke-linejoin="round"/>
<path d="M26.1158 25.7072C26.1158 24.2213 24.6376 23.0195 22.8177 23.0195C20.9978 23.0195 19.5195 24.2213 19.5195 25.7072" stroke="#111827" stroke-width="1.5" stroke-linecap="round" stroke-linejoin="round"/>
</svg>
