<svg width="32" height="32" viewBox="0 0 32 32" fill="none" xmlns="http://www.w3.org/2000/svg">
<path d="M7.56055 28.1082C7.85388 24.6416 11.4139 21.9082 15.7472 21.9082C16.6496 21.9082 17.5184 22.0267 18.3312 22.2457" stroke="#030612" stroke-width="2" stroke-linecap="round" stroke-linejoin="round"/>
<path d="M29.0808 18.1739V11.2806C29.0808 4.61394 26.4141 1.94727 19.7474 1.94727H11.7474C5.08073 1.94727 2.41406 4.61394 2.41406 11.2806V19.2806C2.41406 24.3206 4.11177 26.9853 7.56074 28.1073C9.19061 28.6375 15.2127 28.6375 18.2185 28.6375M15.7474 18.1739C13.1074 18.1739 10.9741 16.0273 10.9741 13.3873C10.9741 10.7473 13.1074 8.61394 15.7474 8.61394C18.3874 8.61394 20.5208 10.7473 20.5208 13.3873C20.5208 16.0273 18.3874 18.1739 15.7474 18.1739Z" stroke="#030612" stroke-width="2" stroke-linecap="round" stroke-linejoin="round"/>
<path d="M20.5208 13.3886C20.5208 16.0286 18.3875 18.1752 15.7475 18.1752C13.1075 18.1752 10.9741 16.0286 10.9741 13.3886C10.9741 10.7486 13.1075 8.61523 15.7475 8.61523C18.3875 8.61523 20.5208 10.7486 20.5208 13.3886Z" stroke="#030612" stroke-width="2" stroke-linecap="round" stroke-linejoin="round"/>
<path d="M22.3696 23.4223L25.1982 20.5938" stroke="#030612" stroke-width="2" stroke-miterlimit="10" stroke-linecap="round" stroke-linejoin="round"/>
<path d="M30.6299 23.4238H22.3696" stroke="#030612" stroke-width="2" stroke-miterlimit="10" stroke-linecap="round" stroke-linejoin="round"/>
<path d="M30.6304 27.2242L27.8018 30.0527" stroke="#030612" stroke-width="2" stroke-miterlimit="10" stroke-linecap="round" stroke-linejoin="round"/>
<path d="M22.3701 27.2246L30.6304 27.2246" stroke="#030612" stroke-width="2" stroke-miterlimit="10" stroke-linecap="round" stroke-linejoin="round"/>
</svg>
